<svg version="1.1" xmlns="http://www.w3.org/2000/svg" viewBox="0 0 512 512">
    <g>
        <path fill="#FFFFFF" d="M426.1,196l-53.7-75.2c-2.1-2.8-5.4-4.5-8.8-4.5h-215c-3.4,0-6.7,1.7-8.8,4.5L85.9,196
			c-0.6,1.9-1.3,3.9-1.9,5.8c-0.2,23.9,19.1,43.4,43,43.4c12.9,0,24.3-5.6,32.2-14.6c8,9,19.3,14.6,32.2,14.6s24.3-5.6,32.2-14.6
			c8,9,19.3,14.6,32.2,14.6c12.9,0,24.3-5.6,32.2-14.6c8,9,19.3,14.6,32.2,14.6c12.9,0,24.3-5.6,32.2-14.6c8,9,19.3,14.6,32.2,14.6
			c23.9,0,43.2-19.6,43-43.4C427.4,199.9,426.7,198,426.1,196z"/>
    </g>
    <g>
        <path fill="#FFFFFF" d="M385,266.8c-11.4,0-22.5-3.1-32.2-8.7c-19.4,11.2-45.1,11.2-64.5,0c-19.4,11.2-45.1,11.2-64.5,0
			c-19.4,11.2-45.1,11.2-64.5,0c-16.1,9.4-36.1,10.6-53.7,4.5v111.7c0,11.9,9.6,21.5,21.5,21.5h172V288.3h64.5v107.5H385
			c11.9,0,21.5-9.6,21.5-21.5V262.8C399.7,265.2,392.5,266.8,385,266.8z M234.5,352.8h-86v-64.5h86V352.8z"/>
    </g>
</svg>
